<svg xmlns="http://www.w3.org/2000/svg" viewBox="0 0 507.1 507.1"><defs><style>.cls-1{fill:#d9271b;}.cls-2{fill:#fff;}</style></defs><g id="Layer_2" data-name="Layer 2"><g id="Layer_2-2" data-name="Layer 2"><rect class="cls-1" width="507.1" height="507.1"/></g><g id="Layer_1-2" data-name="Layer 1"><path class="cls-2" d="M457.89,167.07v8.25a23.36,23.36,0,0,1-3.4,1c-7.2,1.16-12.1,5.32-15.53,11.54l-26,46.85q-11.13,20-22.34,39.88a22.56,22.56,0,0,0-2.8,12.82c.52,9.76.62,19.52.56,29.28s4.44,12.63,12.64,15.34a30.8,30.8,0,0,0,4.88.77c4.88.76,4.88.92,3.53,6.75H331.08c-1.25-6-1.25-6,4.13-6.9,13.59-2.23,19.52-8.64,20.48-22.3.26-3.65.43-7.31.72-10.95a61.69,61.69,0,0,0-6.33-32.88c-11.89-24.71-22.95-49.82-33.9-75-4.41-10.07-10.89-16.45-22.21-17a20.57,20.57,0,0,1-2.8-.62v-6.8a46.8,46.8,0,0,1,4.72-.59c10.17,0,20.34.12,30.5-.14,6.8-.17,12.12,2.49,15.28,8.13,4.72,8.51,9,17.29,13,26.14,9.09,19.95,17.89,40,26.9,60a39.6,39.6,0,0,0,1.81,3.75c6.12-10.62,11.66-20.28,17.23-29.93,10.46-18.12,20.72-36.34,31.45-54.31C438.7,169.2,444.34,166.63,457.89,167.07Z"/><path class="cls-2" d="M286,279.75c17.06,19.41,9.34,49.29-14.64,59-12.09,4.88-24.21,4.18-36.38.37-2.33-.73-4.64-1.51-6.9-2.41-4.75-1.88-9.29-3.25-13.13,1.91-.62.94-2.5.8-4.68,1.3-.46-14.95-.13-28.75-.18-42.56l2.1-.5c.94,1.7,2,3.36,2.81,5.14,2.75,6.08,4.75,12.61,8.23,18.23,5.94,9.65,14.06,16.86,26.18,17.74,11.39.83,21.26-4.57,24.4-14.21s1.94-19.23-6-26.27c-5.07-4.51-11.25-7.81-17.13-11.39-7.64-4.6-15.73-8.51-23.16-13.42-14.29-9.44-19.28-22.78-14.92-37.76,4-13.76,17.52-23.69,33.07-24.4a43.15,43.15,0,0,1,20.21,3.54c4.28,2,8.13,3.55,11.81-1.36,1.74-2.3,4.49-.8,4.7,2.57.6,9.91,1,19.83,1.45,29.54-4.46,2.78-5.08-.16-5.68-3.11-2.44-12.16-9.87-20.22-21-25.07-15.44-6.73-31.18,4.23-29.59,20.44a16.32,16.32,0,0,0,6.51,12,108,108,0,0,0,15,9.14c6.15,3.12,12.92,5.07,18.86,8.52C274.41,270.46,281.18,274.36,286,279.75Z"/><path class="cls-2" d="M216.24,167v7.91c-.31.24-.6.66-1,.71-9.76,1.24-15.66,7.14-20.27,15.6C180.38,218,165.49,244.49,150.5,271a32,32,0,0,0-4.63,18.48c.57,8.72.13,17.49.38,26.23.29,10,4.26,14.64,14.2,16.63,2.38.5,4.78.81,7.14,1.2a7.34,7.34,0,0,1,.54,1.95c0,1.19-.18,2.38-.32,4H89.28a6.52,6.52,0,0,1-.82-1.8c-.11-1.19,0-2.39,0-3.5a8.7,8.7,0,0,1,1.86-1c1.79-.35,3.61-.57,5.4-.87,9.19-1.63,16-7.31,17.08-16.58,1.29-11.24,1.14-22.66,1.43-34a11.17,11.17,0,0,0-1.63-4.56c-12.26-27.44-24.77-54.77-36.78-82.33-5.06-11.83-11.66-21-26.61-20.35v-7.6c2.22-.12,4.19-.29,6.16-.29,9.57,0,19.12.19,28.67-.18a17.2,17.2,0,0,1,16.62,9.3,192.19,192.19,0,0,1,8.74,17.39c10.27,22.78,20.38,45.56,30.55,68.41.33.72.75,1.39,1.5,2.79,1.3-2.05,2.39-3.62,3.25-5.26q20.6-36,41.16-71.92c2.12-3.7,4.44-7.29,6.9-10.77C198.41,168.34,206.57,166.5,216.24,167Z"/></g></g></svg>