<svg xmlns="http://www.w3.org/2000/svg" viewBox="0 0 507.1 507.1"><defs><style>.cls-1{fill:#d4af37;}.cls-2{fill:#ededed;}.cls-3{fill:none;stroke:red;stroke-miterlimit:10;stroke-width:0.57px;}</style></defs><g id="Layer_2" data-name="Layer 2"><g id="Layer_2-2" data-name="Layer 2"><rect class="cls-1" width="507.1" height="507.1"/><g id="_2098662539184" data-name=" 2098662539184"><path class="cls-2" d="M501.81,50.43l-4,31S479.16,142.68,476,148.56s6.88,8.39,9,12.14,4.63,11.64-.37,17.71-6.51,12.84-8,16.34-6.75,14-11,19-9.76,11-12.52,15.27-5.51,3-3.75,8.76,4,4,1.75,9.76-8.76,13-15.77,17c-3.36,1.92-10.47,13.19-20.75,19.5-11.16,6.85-25.67,8.8-32.57,11.54-9.61,3.8-28.22,18-43.31,26.4-5.74,3.2-10.34,5.33-14.55,4.64s-4.47,4.64-5.74,5.91a16,16,0,0,0-4.75,10.86c-.11,2.22,7.28,13.87,10.23,26.38,3.56,15,3.06,31.33,6.54,34,6.38,4.81,13.52,28.54,14.52,44.56s11.52,18.52,12,29.54-1.5,15.52-1.5,15.52H81.11s31.55-85.62,41.06-91.63c2.65-1.67,2.72-8,4.32-16.2,4.15-21.27,7.19-55.39,7.19-55.39S71.6,290.88,69.1,285.63,36.05,252.8,30,252.8,0,231.55,6.51,227.55s24-10.52,29-16-.5-23,2.5-25-9-5.51-9.51-9S21,163,23,159s6.51-10.51,14.52-11.51,11-30,9.51-37.06S35.3,97.62,35.3,97.62l2.25-8.26c.94-3.45,40,13.33,42.06,19s12,3.51,12,3.51l1.5,9.51,13.52,10s11,10.52,21.53,14.52,13,4,19.52,10.52,7,3,17.53,11.51,14,12,14,12,16.52,4,13.63-1.57c0,0-3.75-16.65-1.62-19.53-.26-4.63-16.4-16.89-19.41-19.52,0,0-2.91-15.87,2.26-19.4,3.4-2.33,26.16-18,26.16-18l.12-8.63,6.51-7v-8s-36.75-42-9.51-54.07c4.42-1.95,7.26-5.08,10.6-6.45,17.26-7.07,22.06-5.57,21.94-5.57s18.34,4.92,15,5.51,38.94-3.14,68.1,21.53,24.53,28.54,16,39.06S303.53,90,301.78,90.17s8.14,17.71,8.89,24,1.88,14.52-.63,19.53S294,154.25,291.77,157s-3.13,17.84,3.25,19,17.59-1.37,20.41-3.56,17.65-8.64,25.16-7.39,22.28-7.76,25.79-11.26,9-12,15-15.27,15-6,25.28-13A216,216,0,0,1,430.46,112S463,81,467.77,80.72,501.81,50.43,501.81,50.43ZM450.36,204.16l18.78-16.78-4.26-1.75-17.21-3.82s.94-4.44,1.94-8.7,8.26-29,10.27-30.79,5-23,5-23-11.76,6.51-14.27,8.76-11,11-14.27,14-8.26,3.76-12.76,6-20.14,14.27-23.79,16.52-11.76,9-19,10S351,189.13,345.9,191.89s-13.7,7.63-32.72,21.28c0,0-5.26,11-6.26,13s1.25,4.25,6.26,10.3,15.27,9.13,21.27,16.24,66.09,18.84,69,18.84,7.62-5.58,17.88-6.83,4.26-6.51,4.26-6.51l-14.77-31.54ZM345.85,287c1-3.76-11.52-38.43-43.94-52.2,0,0,2.38,13.16,0,17.91s-7.06,27.53-3,36.42,8.63,14.39,12.89,15.52,14.4-1.13,20.78-4.88S344.85,290.77,345.85,287Zm-17,171.74c3.5-2-1.51-6.51-3.51-12.52s0-11-3.71-18.78-5.55-17.77-12.06-29.79S297.31,352,297.31,352l-7.41-3.22-31.8-9s-8-11.52-8-17.28-6-9.51-8.51-9.51-16.27,3.26-18,3.76-7.26,7.76-10,11-2.75,7.51-6.26,9.26-1.25,0-7-2.25S189,337.21,182.75,340s-14.76,9.26-20.05,8.76c-7.61.63-5.86,17.9-5.86,20.9a49.56,49.56,0,0,1-2,15.28c-2,6.25-.25,9.69-1.76,15.52s1.26,8.26,1,11.26,1,7.26-5,14.77-6.26,27-5.76,34.8,7.51,9.51,11.77,13.27,22.28-2.26,33.94-.5,15.38-2.51,33.4-.75,74.88,5,74.88,5,13.74-4.25,24.3-11.51S325.32,460.76,328.83,458.76ZM289.77,85.12C292.53,82,293.4,78,293.4,71.6s-3-6.39-9.89-13.65a32.33,32.33,0,0,0-16.14-8.88L264.11,35.7,258,38.3a15.69,15.69,0,0,1-8.14-1.5c-3.68-2-14.66-1.17-23.22,1.34l-.06-.21c-5.76.5-9.89,7.63-10.39,12.26s1.75,11.6,3,16,11.64,9.64,18.47,14.52,43.61,7.14,43.61,7.14S287,88.25,289.77,85.12ZM274.56,290.24c9.27-6.26,3.76-18.67,4-27.54s-15.52-26.21-21.28-34.8-28.79-31-28.79-31l-25.53,24s-11.83,15.6-13.33,21.88.12,28.8,1.5,32.79,9.76,8.64,15.52,9.77,15.52-5,20.15-8.51,8-14.24,8.73-15.37.72-.25.72-.25,5.21,24.28,12,29A22.87,22.87,0,0,0,274.56,290.24Zm-5.57-149c2.51-12-.5-16.88-5.25-27.29s-13.77-9-21.53-11-17,4.51-19,6c-9.39,3.57-14.89,18.34-17.27,24.6S210,150,215,156s17.78,9.64,23.54,11,20.71-4.82,23.78-7.2S266.49,153.27,269,141.26ZM182.12,297c7.46-17.12,1.67-39.35-7-54.95-1.88-3.38-7.13-8.52-11.15-3.38,0,0-11.39,9-14.89,14.06s-7.14,14.58-8.51,21.11-.9,15.52,2.38,22,11.76,8.51,16.39,10.14C166.26,308.44,179.29,303.51,182.12,297Zm-17-78.49c6.51-3.5,0-17.52,0-17.52l-33-16.52L92.75,137.4l-20-13-2.51,37.31-15-2.76-5.26,3V187.4l27.29,28.86L63.46,232l7,16.52s36.55,4.18,41.13,0,18-8.76,26-11.26S158.59,222,165.1,218.51Z"/><path class="cls-2" d="M325.32,446.24c2,6,7,10.51,3.51,12.52s3.33.75-7.22,8-24.3,11.51-24.3,11.51-56.86-3.25-74.88-5-21.73,2.5-33.4.75-29.69,4.25-33.94.5-11.27-5.51-11.77-13.27-.25-27.29,5.76-34.8,4.76-11.76,5-14.77-2.51-5.44-1-11.26-.25-9.27,1.76-15.52a49.56,49.56,0,0,0,2-15.28c0-3-1.75-20.27,5.86-20.9,5.29.5,13.76-6,20.05-8.76s11.77-7.51,17.52-5.26,3.51,4,7,2.25,3.51-6,6.26-9.26,8.26-10.51,10-11,15.53-3.76,18-3.76,8.51,3.76,8.51,9.51,8,17.28,8,17.28l31.8,9,7.41,3.22s5.73,33.68,12.24,45.69,8.34,22,12.06,29.79S323.32,440.23,325.32,446.24Zm-6.81,4.46c.25-8.76-11-33.05-14.91-40.56s-10.38-40.55-12.13-50.07-43.06-15-43.06-15l-8.26-22.53s-1.5-1.25-11,0-14.77,21.75-17.77,21.75-6.76,1.78-13.52.28-16.27,3.25-19.66,6.51-15.12,9-15.12,9v27s-.77,13.27-2.52,16-2.25,8.76,0,13.77-9.76,20.53-9.26,36.05,17.52,12.27,31,11.52,46.56,3.5,58.47,1,50.93,3.5,62.81,2.5c3.34-.28,2.71-3.91,4.1-4.7,3.58-2,5.14-2.19,7.3-3.56C318,457.8,318.26,459.46,318.51,450.7Z"/><path class="cls-2" d="M226.62,38.14c8.56-2.51,19.54-3.3,23.22-1.34A15.69,15.69,0,0,0,258,38.3l6.13-2.6,3.26,13.37A32.33,32.33,0,0,1,283.51,58c6.89,7.26,9.89,7.26,9.89,13.65s-.87,10.39-3.63,13.52-8.51,2.75-8.51,2.75-36.78-2.25-43.61-7.14-17.22-10.09-18.47-14.52-3.51-11.39-3-16,4.63-11.76,10.39-12.26Zm59.52,43.65v-5l-1.25-8.26-5.76-8.76L264.34,54l-3-10.27-7.75,1s0-6-18.29-4.75-10.51,22.78-10.51,22.78l.5,1.25c4.31,10.52,44.63,18.43,51.45,19.4A17.13,17.13,0,0,0,286.14,81.79Z"/><path class="cls-2" d="M278.57,262.7c-.25,8.87,5.26,21.28-4,27.54a22.87,22.87,0,0,1-26.28,0c-6.81-4.76-12-29-12-29s0-.88-.72.25-4.1,11.81-8.73,15.37-14.39,9.63-20.15,8.51-14.15-5.77-15.52-9.77-3-26.52-1.5-32.79S203,220.89,203,220.89l25.53-24s23,22.45,28.79,31S278.82,253.83,278.57,262.7Zm-22.4,24.15c14.75,2.1,17.86.3,16.77-19.28-1.07-19.26-31.39-51.38-44.06-64.59,0,0-26,23-30,34.05-2.63,7.24-10.11,43.34,8.26,43.34,5,0,23.76-11.27,28-25.57,5.9-2,5.76,8.88,7.51,16.08S250.91,286.1,256.17,286.85Z"/><path class="cls-3" d="M55.2,158.93l15,2.76,2.51-37.31,20,13,39.31,47.07,33,16.52s6.51,14,0,17.52-19.53,16.28-27.54,18.78-21.39,7.09-26,11.26-41.13,0-41.13,0l-7-16.52,13.77-15.77L49.94,187.4V161.94Z"/><path class="cls-3" d="M164,238.67s-11.39,9-14.89,14.06-7.14,14.58-8.51,21.11-.9,15.52,2.38,22,11.76,8.51,16.39,10.14c6.92,2.43,19.95-2.5,22.78-9,7.46-17.12,1.67-39.35-7-54.95C173.24,238.67,168,233.53,164,238.67Z"/><path class="cls-3" d="M203,220.89l25.53-24s23,22.45,28.79,31,21.53,25.93,21.28,34.8,5.26,21.28-4,27.54a22.87,22.87,0,0,1-26.28,0c-6.81-4.76-12-29-12-29s0-.88-.72.25-4.1,11.81-8.73,15.37-14.39,9.63-20.15,8.51-14.15-5.77-15.52-9.77-3-26.52-1.5-32.79S203,220.89,203,220.89Z"/><path class="cls-3" d="M223.18,109c2-1.5,11.27-8,19-6s16.77.6,21.53,11,7.76,15.27,5.25,27.29-3.56,16.14-6.63,18.52-18,8.58-23.78,7.2-18.53-5-23.54-11-11.51-16.14-9.13-22.4S213.79,112.53,223.18,109Z"/><path class="cls-3" d="M226.06,38.3l.56-.16c8.56-2.51,19.54-3.3,23.22-1.34A15.69,15.69,0,0,0,258,38.3l6.13-2.6,3.26,13.37A32.33,32.33,0,0,1,283.51,58c6.89,7.26,9.89,7.26,9.89,13.65s-.87,10.39-3.63,13.52-8.51,2.75-8.51,2.75-36.78-2.25-43.61-7.14-17.22-10.09-18.47-14.52-3.51-11.39-3-16,4.63-11.76,10.39-12.26"/><path class="cls-3" d="M301.91,234.82s2.38,13.16,0,17.91-7.06,27.53-3,36.42,8.63,14.39,12.89,15.52,14.4-1.13,20.78-4.88,12.27-9,13.27-12.77S334.33,248.59,301.91,234.82Z"/><path class="cls-3" d="M313.18,213.17c19-13.65,27.65-18.53,32.72-21.28s27.61-16.27,34.87-17.27,15.38-7.76,19-10,19.28-14.27,23.79-16.52,9.51-3,12.76-6,11.77-11.77,14.27-14,14.27-8.76,14.27-8.76-3,21.28-5,23-9.27,26.54-10.27,30.79-1.94,8.7-1.94,8.7l17.21,3.82,4.26,1.75-18.78,16.78-39.55,22.53,14.77,31.54s6,5.26-4.26,6.51-15,6.83-17.88,6.83-63-11.73-69-18.84-16.27-10.19-21.27-16.24-7.26-8.3-6.26-10.3S313.18,213.17,313.18,213.17Z"/><path class="cls-3" d="M162.7,348.73c5.29.5,13.76-6,20.05-8.76s11.77-7.51,17.52-5.26,3.51,4,7,2.25,3.51-6,6.26-9.26,8.26-10.51,10-11,15.53-3.76,18-3.76,8.51,3.76,8.51,9.51,8,17.28,8,17.28l31.8,9,7.41,3.22s5.73,33.68,12.24,45.69,8.34,22,12.06,29.79,1.71,12.77,3.71,18.78,7,10.51,3.51,12.52,3.33.75-7.22,8-24.3,11.51-24.3,11.51-56.86-3.25-74.88-5-21.73,2.5-33.4.75-29.69,4.25-33.94.5-11.27-5.51-11.77-13.27-.25-27.29,5.76-34.8,4.76-11.76,5-14.77-2.51-5.44-1-11.26-.25-9.27,1.76-15.52a49.56,49.56,0,0,0,2-15.28C156.84,366.63,155.09,349.36,162.7,348.73Z"/></g></g></g></svg>